<?xml version="1.0" encoding="UTF-8" standalone="no"?>
<!-- Created with Inkscape (http://www.inkscape.org/) -->

<svg
   width="167.2083mm"
   height="166.68469mm"
   viewBox="0 0 167.2083 166.68469"
   version="1.1"
   id="svg1"
   inkscape:version="1.3.2 (1:1.3.2+202311252150+091e20ef0f)"
   sodipodi:docname="logo.svg"
   xmlns:inkscape="http://www.inkscape.org/namespaces/inkscape"
   xmlns:sodipodi="http://sodipodi.sourceforge.net/DTD/sodipodi-0.dtd"
   xmlns="http://www.w3.org/2000/svg"
   xmlns:svg="http://www.w3.org/2000/svg">
  <sodipodi:namedview
     id="namedview1"
     pagecolor="#ffffff"
     bordercolor="#000000"
     borderopacity="0.25"
     inkscape:showpageshadow="2"
     inkscape:pageopacity="0.0"
     inkscape:pagecheckerboard="0"
     inkscape:deskcolor="#d1d1d1"
     inkscape:document-units="mm"
     inkscape:zoom="1.0779321"
     inkscape:cx="397.05655"
     inkscape:cy="561.25984"
     inkscape:window-width="2560"
     inkscape:window-height="1410"
     inkscape:window-x="2560"
     inkscape:window-y="0"
     inkscape:window-maximized="1"
     inkscape:current-layer="layer1" />
  <defs
     id="defs1" />
  <g
     inkscape:label="Layer 1"
     inkscape:groupmode="layer"
     id="layer1">
    <path
       style="color:#000000;fill:#ffffff;stroke-width:0.837584;-inkscape-stroke:none;paint-order:stroke fill markers"
       d="M 83.6042,0 C 37.4339,0 0,37.3909 0,83.3416 c 0,45.9506 37.4339,83.3431 83.6042,83.3431 46.1702,0 83.6041,-37.3925 83.6041,-83.3431 C 167.2083,37.3909 129.7744,0 83.6042,0 Z m 0,6.8991 c 42.2791,0 76.5466,34.1462 76.5466,76.4425 0,42.2963 -34.2675,76.4424 -76.5466,76.4424 -42.2791,0 -76.5484,-34.1461 -76.5484,-76.4424 0,-42.2963 34.2693,-76.4425 76.5484,-76.4425 z"
       id="path33-2" />
    <path
       style="fill:#ffffff;fill-opacity:1;stroke:none;stroke-width:4.51736;stroke-linecap:butt;stroke-linejoin:round;stroke-miterlimit:4;stroke-dasharray:none;stroke-dashoffset:0;stroke-opacity:1;paint-order:stroke fill markers"
       d="m 55.9631,28.4941 -1.1172,3.872 4.9317,6.621 0.3195,2.9632 c 0,0 3.8927,9.5065 4.0249,14.3406 0.132,4.8341 1.8532,64.9198 0.6516,69.5082 -1.2017,4.5886 -3.3714,9.8808 -3.3714,9.8808 l 2.3977,4.472 18.6147,-0.074 -0.1489,-8.947 c 0,0 -5.4267,-11.9331 -4.0682,-26.2468 0.5751,-6.0602 8.3447,-19.0088 13.7598,-24.2334 5.0236,-4.8469 13.9009,-12.6544 13.9009,-12.6544 l 14.1114,-6.6045 8.1934,0.2953 c 0,0 -8.101,-9.0193 -12.5806,-11.3954 -4.4796,-2.3762 -5.4724,-2.0374 -5.4724,-2.0374 0,0 -5.411,6.2029 -16.7468,17.8749 -11.3358,11.6719 -16.8213,18.7499 -16.8213,18.7499 0,0 -3.6809,-7.8183 -1.8239,-11.9299 1.5038,-3.3296 12.0605,-19.0223 16.6392,-23.1815 4.5789,-4.1592 20.4244,-14.9375 22.037,-15.7053 1.6128,-0.7679 2.5558,-3.2743 -0.6298,-4.1206 -3.1855,-0.8464 -12.5302,-3.3382 -14.1604,-2.9918 -1.6302,0.3463 -5.9273,4.6741 -8.2011,7.379 -2.2741,2.705 -15.0771,21.7084 -15.0771,21.7084 -3.1542,-6.6204 0.062,-18.6154 0.6494,-21.3153 0.7445,-3.4217 0.2225,-5.5915 -3.2888,-6.988 -3.5114,-1.3965 -16.7233,0.7596 -16.7233,0.7596 z"
       id="path35-7"
       sodipodi:nodetypes="ccccssccccsscccscscsssssscsscc" />
  </g>
</svg>
